<?xml version="1.0" standalone="no"?>
<!DOCTYPE svg PUBLIC "-//W3C//DTD SVG 20010904//EN"
 "http://www.w3.org/TR/2001/REC-SVG-20010904/DTD/svg10.dtd">
<svg version="1.0" xmlns="http://www.w3.org/2000/svg"
 width="225.000000pt" height="225.000000pt" viewBox="0 0 225.000000 225.000000"
 preserveAspectRatio="xMidYMid meet">

<g transform="translate(0.000000,225.000000) scale(0.100000,-0.100000)"
fill="#000000" stroke="none">
<path d="M677 1953 c-4 -3 -7 -155 -7 -336 l0 -329 -22 6 c-71 20 -116 18
-171 -7 -149 -68 -152 -250 -5 -311 85 -36 197 0 243 78 l25 43 0 367 c0 351
1 366 18 357 25 -13 241 -228 272 -270 20 -27 30 -32 47 -27 74 24 -1 124
-268 360 -79 69 -114 88 -132 69z"/>
<path d="M1825 1605 c-5 -2 -158 -43 -340 -91 -181 -48 -338 -94 -347 -102
-17 -14 -18 -45 -18 -375 0 -338 -1 -359 -17 -352 -93 40 -132 43 -212 19 -36
-10 -67 -29 -101 -62 -154 -150 -35 -382 184 -359 64 6 119 33 163 79 63 66
63 62 63 551 l0 444 123 32 c122 33 436 117 470 127 16 5 17 -14 17 -304 l0
-309 -38 18 c-121 60 -282 8 -342 -112 -22 -42 -26 -121 -9 -166 42 -113 201
-167 325 -109 58 27 120 94 134 145 14 50 13 886 0 912 -10 17 -30 23 -55 14z"/>
</g>
</svg>
